<?xml version="1.0" standalone="no"?>
<!DOCTYPE svg PUBLIC "-//W3C//DTD SVG 20010904//EN"
 "http://www.w3.org/TR/2001/REC-SVG-20010904/DTD/svg10.dtd">
<svg version="1.0" xmlns="http://www.w3.org/2000/svg"
 width="236.000000pt" height="220.000000pt" viewBox="0 0 236.000000 220.000000"
 preserveAspectRatio="xMidYMid meet">

<g transform="translate(0.000000,220.000000) scale(0.100000,-0.100000)"
fill="#000000" stroke="none">
<path d="M571 2049 c-48 -15 -106 -56 -120 -86 -21 -46 -24 -115 -7 -162 15
-41 15 -46 0 -63 -15 -16 -34 -18 -165 -18 -136 0 -149 -2 -159 -19 -15 -30
-13 -371 3 -372 6 -1 44 -2 82 -3 80 -1 121 -20 166 -76 41 -51 56 -115 39
-173 -16 -58 -49 -93 -118 -125 -45 -20 -62 -23 -109 -17 -42 5 -58 3 -64 -7
-12 -18 -11 -359 1 -378 7 -12 42 -16 167 -20 l158 -5 -3 -35 c-10 -141 -8
-165 21 -209 52 -78 161 -104 248 -58 69 37 108 123 88 199 -6 24 -13 54 -16
67 -4 14 0 27 8 32 8 5 113 9 235 9 208 0 222 1 239 20 14 16 16 26 9 52 -7
26 -21 39 -64 61 -58 30 -68 30 -223 11 -70 -9 -93 0 -107 42 -7 19 -9 51 -5
70 4 25 2 39 -10 51 -11 11 -15 26 -11 44 3 18 0 32 -10 40 -11 9 -14 22 -9
46 6 31 3 35 -28 48 -52 22 -62 38 -41 72 10 15 33 45 51 66 38 43 38 42 17
93 -12 29 -15 61 -12 125 3 74 8 93 31 128 52 79 136 114 302 126 85 7 98 10
111 31 12 17 13 27 4 43 -10 20 -18 21 -239 21 -266 0 -264 -1 -241 78 36 126
-11 219 -126 251 -45 13 -48 12 -93 0z"/>
<path d="M1735 2055 c-5 -2 -22 -6 -37 -9 -61 -14 -127 -102 -128 -171 0 -16
8 -52 17 -78 17 -47 17 -49 -2 -63 -12 -9 -45 -14 -96 -14 -85 0 -89 -3 -107
-67 -8 -25 -26 -53 -47 -72 -32 -28 -43 -31 -99 -31 -79 0 -168 -16 -227 -42
-38 -16 -48 -26 -57 -56 -22 -75 -24 -119 -8 -175 22 -77 20 -98 -14 -148
l-29 -44 25 -20 c15 -13 25 -31 25 -50 2 -46 21 -138 32 -153 5 -7 7 -34 3
-63 l-7 -51 43 6 c144 19 173 19 224 -3 72 -31 124 -87 135 -146 13 -71 20
-75 114 -75 103 0 115 -9 90 -75 -48 -124 43 -255 177 -255 79 0 165 74 181
157 3 17 0 57 -9 89 -21 83 -20 84 152 84 116 0 145 3 158 16 13 13 16 45 16
192 0 97 -4 183 -9 191 -6 10 -21 12 -54 7 -109 -17 -205 44 -227 145 -32 145
74 265 217 245 75 -10 73 -15 73 181 0 101 -4 182 -10 194 -10 17 -23 19 -159
19 -175 0 -182 3 -163 76 34 127 -8 211 -127 252 -34 12 -47 13 -66 7z"/>
</g>
</svg>
